<?xml version="1.0" standalone="no"?>
<!DOCTYPE svg PUBLIC "-//W3C//DTD SVG 20010904//EN"
 "http://www.w3.org/TR/2001/REC-SVG-20010904/DTD/svg10.dtd">
<svg version="1.0" xmlns="http://www.w3.org/2000/svg"
 width="134.000000pt" height="134.000000pt" viewBox="0 0 134.000000 134.000000"
 preserveAspectRatio="xMidYMid meet">
<metadata>
Created by potrace 1.11, written by Peter Selinger 2001-2013
</metadata>
<g transform="translate(0.000000,134.000000) scale(0.100000,-0.100000)"
fill="#000000" stroke="none">
<path d="M385 1095 l0 -125 32 0 c31 0 33 -2 33 -34 0 -30 3 -33 28 -32 23 1
27 -3 30 -31 l3 -33 -65 0 -66 0 0 30 0 30 -95 0 -95 0 0 -30 c0 -27 -3 -30
-29 -30 -26 0 -30 -4 -33 -32 -2 -26 -8 -33 -25 -34 -13 -1 -27 -2 -31 -3 -4
0 -8 -13 -8 -28 1 -24 -3 -28 -31 -31 -29 -3 -33 -7 -33 -33 l0 -29 160 0 160
0 0 29 c0 32 12 40 46 33 18 -3 22 -10 19 -33 l-4 -29 130 0 c98 0 129 3 128
13 -5 41 2 52 31 52 25 1 30 -3 31 -25 1 -14 1 -28 0 -32 0 -5 57 -8 128 -8
l129 0 -2 25 c-4 28 10 42 39 41 15 -1 21 -9 23 -33 l3 -33 160 0 159 0 0 30
c0 27 -3 30 -30 30 -16 0 -31 5 -31 10 -1 6 -3 15 -4 20 -1 6 -3 16 -4 23 0 7
-13 13 -28 13 -24 -1 -28 3 -31 32 -3 28 -7 32 -33 32 -26 0 -29 3 -29 30 l0
30 -95 0 -95 0 0 -30 0 -30 -65 0 -65 0 0 29 c0 30 19 45 45 35 12 -5 15 2 15
30 0 34 2 36 33 36 l33 0 -1 123 0 122 -31 3 c-30 3 -31 1 -28 -27 2 -20 -1
-31 -9 -32 -6 -1 -16 -2 -22 -4 -5 -1 -16 -3 -22 -3 -7 -1 -13 -15 -13 -32 0
-27 -3 -30 -30 -30 -27 0 -30 -3 -30 -30 0 -28 -3 -30 -36 -30 -31 0 -36 -3
-31 -19 2 -10 1 -25 -4 -32 -12 -20 -59 -19 -60 1 -1 8 -2 22 -3 30 0 9 -13
16 -33 18 -29 3 -33 7 -33 33 0 26 -3 29 -30 29 -26 0 -30 3 -30 29 0 30 -19
45 -45 35 -15 -6 -16 -3 -19 39 -1 17 -8 23 -31 25 l-30 3 0 -126z m-128 -274
c-7 -26 8 -45 35 -46 19 0 24 -6 26 -32 3 -32 2 -33 -32 -33 -20 0 -35 3 -35
8 1 4 1 19 0 33 -1 21 -6 25 -28 25 -24 -1 -28 3 -31 32 -3 31 -2 32 34 32 31
0 36 -3 31 -19z m318 -13 c1 -16 -1 -29 -4 -29 -56 -11 -61 -8 -61 27 0 34 1
35 32 32 27 -3 32 -7 33 -30z m255 -1 c0 -30 -3 -33 -30 -33 -16 0 -30 2 -31
5 -9 54 -6 61 28 61 31 0 33 -2 33 -33z m318 1 c-3 -29 -6 -33 -33 -33 -27 0
-30 3 -32 33 -1 30 1 32 34 32 33 0 34 -1 31 -32z m-62 -65 c1 -31 -1 -33 -32
-33 -32 0 -34 2 -34 36 0 34 1 35 32 32 29 -3 33 -6 34 -35z"/>
<path d="M389 611 c-5 -19 -3 -491 1 -491 14 0 91 88 88 101 -2 7 6 15 19 17
12 2 27 10 33 18 10 12 7 14 -19 14 -35 0 -33 -8 -32 145 0 189 -2 175 31 175
35 0 32 15 32 -172 0 -153 1 -154 64 -86 l32 33 -2 125 -1 125 -122 1 c-68 0
-124 -2 -124 -5z"/>
<path d="M705 611 c-1 -3 -2 -61 -2 -128 l2 -122 40 -41 c40 -41 62 -52 51
-25 -8 21 19 43 46 38 21 -4 23 -8 20 -64 -4 -60 -4 -60 42 -105 25 -24 47
-44 49 -44 2 0 3 111 3 248 l-1 247 -123 1 c-68 0 -125 -2 -127 -5z m157 -98
c2 -43 2 -95 0 -115 -3 -35 -6 -38 -33 -38 -32 0 -30 -8 -33 125 -2 100 0 105
34 105 l28 0 4 -77z"/>
<path d="M71 580 c-3 -3 -6 -86 -6 -185 l1 -180 47 -3 47 -3 0 173 0 173 80 0
c65 0 80 3 80 15 0 13 -20 15 -121 15 -66 0 -124 -2 -128 -5z"/>
<path d="M1032 582 c-9 -3 -12 -52 -12 -188 l0 -184 49 0 49 0 -3 44 c-2 39 2
49 31 77 l34 33 0 -77 c0 -73 1 -77 23 -78 12 0 32 -2 45 -3 12 -2 23 0 23 3
7 35 2 364 -6 369 -5 4 -27 7 -47 7 l-38 0 0 -89 c0 -84 -2 -92 -27 -118 -15
-15 -29 -28 -33 -28 -3 0 -5 50 -5 110 0 61 -2 114 -5 118 -6 8 -59 11 -78 4z"/>
<path d="M1139 584 c0 -5 -2 -26 -5 -46 -3 -28 0 -36 10 -32 19 7 26 62 9 75
-7 6 -13 8 -14 3z"/>
</g>
</svg>
