<svg xmlns="http://www.w3.org/2000/svg" viewBox="0 0 701.63 512"><defs><style>.cls-1{fill:#f03838;}</style></defs><title>Ресурс 14</title><g id="Слой_2" data-name="Слой 2"><g id="Capa_1" data-name="Capa 1"><polygon class="cls-1" points="196.74 165.84 173.04 165.84 173.04 142.09 149.33 142.09 149.33 165.84 125.63 165.84 125.63 189.59 101.93 189.59 101.93 213.33 125.63 213.33 149.33 213.33 173.04 213.33 196.74 213.33 220.44 213.33 220.44 189.59 196.74 189.59 196.74 165.84"/><path class="cls-1" d="M504.89,118.34H457.48v23.75H410.07V118.34h23.7V94.79h23.7V0h-23.7V23.75h-23.7V47.5h-23.7V71.25h-23.7V94.79H339V71.25h-23.7V47.5h-23.7V23.75h-23.7V0h-23.7V94.79h23.7v23.55h23.7v23.75H244.15V118.34H173v23.75h23.7v23.75h23.7v23.75h23.7v23.75H339V189.58h23.7v23.75h94.81V189.58h23.7V165.84h23.7V142.09h23.7V118.34Zm-189.63,47.5h-23.7V142.29h23.7Zm94.81,0h-23.7V142.29h23.7Z"/><polygon class="cls-1" points="576 189.59 576 165.84 552.3 165.84 552.3 142.09 528.59 142.09 528.59 165.84 504.89 165.84 504.89 189.59 481.19 189.59 481.19 213.33 504.89 213.33 528.59 213.33 552.3 213.33 576 213.33 599.7 213.33 599.7 189.59 576 189.59"/><polygon class="cls-1" points="220.44 237.04 161.19 237.04 125.63 237.04 125.63 248.89 125.63 379.26 161.19 379.26 161.19 248.89 220.44 248.89 220.44 237.04"/><polygon class="cls-1" points="303.41 355.56 303.41 355.56 303.41 355.56 303.41 355.56"/><polygon class="cls-1" points="338.96 225.19 303.41 225.19 279.7 225.19 244.15 225.19 244.15 237.04 244.15 355.56 244.15 367.41 244.15 414.81 279.7 379.26 279.7 367.41 291.56 367.41 303.41 355.56 279.7 355.56 279.7 237.04 303.41 237.04 303.41 355.56 338.96 320 338.96 237.04 338.96 225.19"/><path class="cls-1" d="M421.93,225.19H362.67V320l35.56,35.56v-23.7h23.7v47.41l35.56,35.56V225.19Zm0,94.81h-23.7V237h23.7Z"/><polygon class="cls-1" points="522.67 237.04 522.67 272.59 534.52 260.74 534.52 237.04 522.67 237.04"/><polygon class="cls-1" points="576 237.04 540.45 237.04 540.45 303.24 516.74 326.94 516.74 237.04 481.19 237.04 481.19 362.5 481.19 362.5 481.19 379.26 481.19 379.26 516.74 379.26 516.74 343.7 540.45 320 540.45 379.26 576 379.26 576 284.44 576 267.68 576 237.04"/><path class="cls-1" d="M27.09,465.25a5.34,5.34,0,0,0-3.1,1.61,17.28,17.28,0,0,0-2.76,3.44q-1.23,2-2.23,3.95l-2.07,4q-.88,1.63-2.36,4.66t-3.05,6.29Q10,492.51,9.74,492.9a16.55,16.55,0,0,0-.94,2.21q-.65,1.73-1.17,2.83a7,7,0,0,1-1.42,2,2.93,2.93,0,0,1-2.12.89q-1.92-.07-1.92-3.61a17.92,17.92,0,0,1,.41-3.78q.16-.82.51-2.48a34,34,0,0,1,1.17-4,42.59,42.59,0,0,1,2.28-5.22,51.42,51.42,0,0,1,3.79-6.18q4.36-6.19,6.06-7.33-3.4,1-4.94,1.45t-2.9,1.07q-1.36.57-4.11,1.86l-1.28.66a5.35,5.35,0,0,1-1.66.66Q0,473.91,0,472.29a6.15,6.15,0,0,1,.74-1.88,21,21,0,0,1,2-3.17q3-4,5-4.75a63.75,63.75,0,0,1,7.26-2.19q4.24-1,8.67-1.71a51.12,51.12,0,0,1,7.38-.67A22.17,22.17,0,0,1,38.78,459a8.16,8.16,0,0,1,4,2.74,6.1,6.1,0,0,1,1.13,3.49q-.21,5.82-3.59,7.33a5.14,5.14,0,0,1-2.17.37q-1.58,0-2-.72a1.12,1.12,0,0,1-.12-.43,1.73,1.73,0,0,1,.38-1q.38-.52,1.2-1.44a10.76,10.76,0,0,0,1.27-1.69,3.05,3.05,0,0,0,.45-1.55Q39.12,465,33.94,465,31.42,465,27.09,465.25Z"/><path class="cls-1" d="M60.08,494.16a2,2,0,0,0,1,.23,3.92,3.92,0,0,0,2.16-.76,29.73,29.73,0,0,0,2.85-2.27,27.42,27.42,0,0,1,2.49-2l.47,2.21A35,35,0,0,1,65,495.34a48.79,48.79,0,0,1-5.44,3.92,9.1,9.1,0,0,1-4.08,1.67,2.63,2.63,0,0,1-2.15-.89,3.47,3.47,0,0,1-.74-2.29q0-2.17,2.23-6.72l-.13-.13-5.52,4.93a26.56,26.56,0,0,1-3.26,2.29,11.58,11.58,0,0,1-3.24,1.61,8.76,8.76,0,0,1-2.1.25q-3.84,0-3.84-3.84a14.35,14.35,0,0,1,.66-3.84,13.33,13.33,0,0,1,2.94-5,30.09,30.09,0,0,1,5.56-5,34.3,34.3,0,0,1,7-3.77,21.52,21.52,0,0,1,7-1.63,5.2,5.2,0,0,1,2.94.67,2,2,0,0,1,1,1.74,2.1,2.1,0,0,1-.37,1.11,1.35,1.35,0,0,1-.68.45l-.69.18a2.06,2.06,0,0,1,1.12.87,3.67,3.67,0,0,1,.26,1.59,10.82,10.82,0,0,1-1.52,3.18q-1.52,2.59-2.1,3.7a4.81,4.81,0,0,0-.58,2.25A1.55,1.55,0,0,0,60.08,494.16ZM43.13,495a1.06,1.06,0,0,0,.6.18q1.06,0,4.17-2.56t10.2-9.69a14.25,14.25,0,0,0-2.23-.13,15,15,0,0,0-5.56,1,14.72,14.72,0,0,0-4.4,2.63,12.77,12.77,0,0,0-2.79,3.36,6.69,6.69,0,0,0-1,3.17A2.25,2.25,0,0,0,43.13,495Z"/><path class="cls-1" d="M70.83,500.28q-.81-.5-1.78-3.59a17.64,17.64,0,0,1-1-5,18.44,18.44,0,0,1,1.74-8.46,13.66,13.66,0,0,1,4.82-5.37q.92-.66,3.9-.66a1.41,1.41,0,0,1,1.06.36,2.86,2.86,0,0,1,.43,1.64,5.23,5.23,0,0,1-1.26,2.7,18,18,0,0,0-1.13,1.82,18.72,18.72,0,0,1-1.33,2.08.42.42,0,0,0-.12.31q0,.66,2.35.66A21.42,21.42,0,0,0,83,486.2q2.41-.51,2.71-1.11a21.09,21.09,0,0,1,2.6-4,20.15,20.15,0,0,1,3.26-3.24,4.92,4.92,0,0,1,2.67-1.26,3.68,3.68,0,0,1,1.72.31,1.3,1.3,0,0,1,.56,1.25,5.37,5.37,0,0,1-.18,1.2,5.51,5.51,0,0,1-1.14,2.39A22.53,22.53,0,0,1,93,483.94a29.5,29.5,0,0,0-3.9,4.4,8.08,8.08,0,0,0-1.94,4.43q0,1.32,1.51,1.32,2.24,0,9.26-5.64l.35,2.6-3,2.88q-1.81,1.77-3.7,3.33a24,24,0,0,1-3.79,2.59,7.31,7.31,0,0,1-3.43,1,3.19,3.19,0,0,1-2.57-1.16,4.21,4.21,0,0,1-1-2.79q0-5,1.8-6.84l-3.43-.34q-2.19-.21-3.59-.2-.84,0-.84.12a16.57,16.57,0,0,0,.19,2.69q.19,1.14.57,2.88a13.58,13.58,0,0,1,.38,2.35,2.46,2.46,0,0,1-1.8,2.4,7.13,7.13,0,0,1-2.23.54A1.9,1.9,0,0,1,70.83,500.28Z"/><path class="cls-1" d="M118.06,494.16a2,2,0,0,0,1,.23,3.92,3.92,0,0,0,2.16-.76,29.73,29.73,0,0,0,2.85-2.27,27.42,27.42,0,0,1,2.49-2l.47,2.21a35,35,0,0,1-4.05,3.78,48.79,48.79,0,0,1-5.44,3.92,9.1,9.1,0,0,1-4.08,1.67,2.63,2.63,0,0,1-2.15-.89,3.47,3.47,0,0,1-.74-2.29q0-2.17,2.23-6.72l-.13-.13-5.52,4.93a26.56,26.56,0,0,1-3.26,2.29,11.58,11.58,0,0,1-3.24,1.61,8.76,8.76,0,0,1-2.1.25q-3.84,0-3.84-3.84a14.35,14.35,0,0,1,.66-3.84,13.33,13.33,0,0,1,2.94-5,30.09,30.09,0,0,1,5.56-5,34.3,34.3,0,0,1,7-3.77,21.52,21.52,0,0,1,7-1.63,5.2,5.2,0,0,1,2.94.67,2,2,0,0,1,1,1.74,2.1,2.1,0,0,1-.37,1.11,1.35,1.35,0,0,1-.68.45l-.69.18a2.06,2.06,0,0,1,1.12.87,3.67,3.67,0,0,1,.26,1.59,10.82,10.82,0,0,1-1.52,3.18q-1.52,2.59-2.1,3.7a4.81,4.81,0,0,0-.58,2.25A1.55,1.55,0,0,0,118.06,494.16Zm-16.95.84a1.06,1.06,0,0,0,.6.18q1.06,0,4.17-2.56t10.2-9.69a14.25,14.25,0,0,0-2.23-.13,15,15,0,0,0-5.56,1,14.72,14.72,0,0,0-4.4,2.63,12.77,12.77,0,0,0-2.79,3.36,6.69,6.69,0,0,0-1,3.17A2.25,2.25,0,0,0,101.11,495Z"/><path class="cls-1" d="M133.89,484.25l-9.5,9.07-.23-2.82,12.07-12.56,1.47-1.6a8.07,8.07,0,0,1,1.5-1.28,4.64,4.64,0,0,1,1.83-.67,2.54,2.54,0,0,1,2,.87,2.65,2.65,0,0,1,.78,1.77q0,.9-1.91,3.26a34.26,34.26,0,0,1-3.31,3.65q8.06-5.82,11.41-5.82a2.63,2.63,0,0,1,2,.81,2.79,2.79,0,0,1,.78,2,10.48,10.48,0,0,1-2.26,5.77,46.5,46.5,0,0,1-7.24,7.63q.6.06,1.69.06a9.74,9.74,0,0,0,3.31-.51,11.21,11.21,0,0,0,2.92-1.64q1.5-1.13,4.88-4l.43,2.76q-1.94,2-3.34,3.41a21.59,21.59,0,0,1-2.91,2.48,13.31,13.31,0,0,1-3.72,1.75,22,22,0,0,1-5.47.84q-1.31,0-5.45-.43t-4.89-.59L125,509.48q-1.32,2.52-2.7,2.52a1.39,1.39,0,0,1-1.33-.84,4.17,4.17,0,0,1-.41-1.86q0-4.24,3.72-9.49,1-1.32,2-3.1t2.54-4.38q1.49-2.6,2.54-4.33T133.89,484.25Zm6.06,2.58a12.6,12.6,0,0,0-1.89,1.7,25.56,25.56,0,0,0-1.7,2.11L134.61,493a16.75,16.75,0,0,1,1.79.4,8.53,8.53,0,0,0,2.11.32,10.28,10.28,0,0,0,1.14-.12l4.44-5,.8-.95a8.89,8.89,0,0,0,.8-1.09,1.89,1.89,0,0,0,.32-1,1,1,0,0,0-.18-.54,2.18,2.18,0,0,0-1.09-.31Q143.22,484.72,139.95,486.83Z"/><path class="cls-1" d="M182.67,491.87a11.2,11.2,0,0,1,2.17-4.61,46.78,46.78,0,0,1,3-3.81,17.47,17.47,0,0,1,2.1-2.52,43.8,43.8,0,0,1,3.29-3.15,6.35,6.35,0,0,1,2.35-1.53,11,11,0,0,1,1.26-.06,2.17,2.17,0,0,1,1.33.4,1.74,1.74,0,0,1,.41,1.34,8,8,0,0,1-.18,1.44,4.92,4.92,0,0,1-.51,1.5,6.22,6.22,0,0,1-.84,1.2,13.69,13.69,0,0,1-1.19,1.14l-.83.72a28.88,28.88,0,0,0-3.89,4.42,8.14,8.14,0,0,0-1.93,4.42q0,1.32,1.5,1.32,2.24,0,9.26-5.65l.37,2.6-3,2.88q-1.81,1.77-3.7,3.33a24,24,0,0,1-3.79,2.6,7.31,7.31,0,0,1-3.42,1,4.64,4.64,0,0,1-3-1,3.16,3.16,0,0,1-1.28-2.57,5.84,5.84,0,0,0-.88.48l-.63.42q-.91.26-2.71.87t-2.76.89a6.27,6.27,0,0,1-1.72.28,9.43,9.43,0,0,1-2.11.41q-1.17.1-3.24.16l-2.53.09a15.14,15.14,0,0,1-5-.82,3.14,3.14,0,0,1-2.48-2.85,5.35,5.35,0,0,0-.09-.92,4.72,4.72,0,0,1-.09-.75q0-1.31,2.77-4.93-.79.21-2.34.52a13.8,13.8,0,0,1-2.71.32q-.31-.15-.31-1a6.14,6.14,0,0,1,.12-1.17q.12-.6.19-.88a7.43,7.43,0,0,1,2.37-1.09q1.64-.51,3.24-.84l2.2-.45,2.21-3.85q.95-1.66,2-3.12a12.63,12.63,0,0,1,2-2.35,5.16,5.16,0,0,1,3.42-1.38,3.18,3.18,0,0,1,2.05.66q-.73,3.61-5.23,10.81,9.48,0,9.55,4.68a7.69,7.69,0,0,1-1.51,4.87,5.26,5.26,0,0,0,1.93-.6,4.6,4.6,0,0,0,1.85-1.38A7.09,7.09,0,0,0,182.67,491.87Zm-15.15-1.5-1.26,2.21q-.37.62-.79,1.38a3,3,0,0,0-.42,1.45,2.2,2.2,0,0,0,2.35,1.32,3.47,3.47,0,0,0,1-.13,11.26,11.26,0,0,0,3.57-1.36,3,3,0,0,0,1.06-2.66q0-2.16-3-2.16l-.79,0-.76,0A2.62,2.62,0,0,1,167.52,490.38Z"/><path class="cls-1" d="M204.54,492.23a4.3,4.3,0,0,0-.18,1.14,1.93,1.93,0,0,0,.95,1.76,7.07,7.07,0,0,0,3.44.59A9.93,9.93,0,0,0,213,494.4a31.44,31.44,0,0,0,4.46-3q2.24-1.78,4.19-3.37l.72,2.35a56.43,56.43,0,0,1-4.86,4.55,30.68,30.68,0,0,1-5.63,3.75,12.3,12.3,0,0,1-5.61,1.54,6.43,6.43,0,0,1-3.74-1.14,7.5,7.5,0,0,1-2.57-3.13,10.69,10.69,0,0,1-.91-4.5,14.28,14.28,0,0,1,2.35-6.2,21.37,21.37,0,0,1,5-5.21q4.93-3.73,8.89-3.73a6.2,6.2,0,0,1,3,.76,2.26,2.26,0,0,1,1.4,2,5.14,5.14,0,0,1-.89,2.86,8.51,8.51,0,0,1-2.12,2.25,6,6,0,0,1-2.09,1.08,9.31,9.31,0,0,1-1,.13q-1.61,0-1.61-1.86a7.26,7.26,0,0,1,.18-1.51,17.29,17.29,0,0,0-3.93,3.12A14.48,14.48,0,0,0,204.54,492.23Z"/><path class="cls-1" d="M226.7,500.16a4.84,4.84,0,0,1-2.9-1.17,7.65,7.65,0,0,1-2.15-3.12,13.63,13.63,0,0,1-.9-4.66q0-.4,0-1.06t0-1a3.53,3.53,0,0,1,.12-1q.12-.37.31-.37.63,0,2,2.07a29.54,29.54,0,0,1,1.93,3.34,2.76,2.76,0,0,0,1.25,1.41,4.87,4.87,0,0,0,1.81.28,41.69,41.69,0,0,0,4.53-1.1q3.48-1,4.12-1.13l8.41-2.21-.23-.06a18.87,18.87,0,0,1-4.51-.68,28.34,28.34,0,0,1-4.8-1.66,5.19,5.19,0,0,1-2.52-1.81,3.8,3.8,0,0,1-.43-1.68,3.52,3.52,0,0,1,.43-1.74,23.6,23.6,0,0,1,1.43-2.15,9.5,9.5,0,0,1,3.89-2.81,16.73,16.73,0,0,1,4.42-1.13,44.08,44.08,0,0,1,4.43-.21,23,23,0,0,1,6.65.68,4.25,4.25,0,0,1,2.66,2,6.39,6.39,0,0,1,.47,2.21,5.09,5.09,0,0,1-.18,1.51,3.33,3.33,0,0,1-.55,1.09,1,1,0,0,1-.71.46,3.2,3.2,0,0,1-2.13-.46q-.46-.24-.45-.43t.89-.37v-.06a5.81,5.81,0,0,0-2.52-.72l-2.7,6.18a6.68,6.68,0,0,0,2.7.54,17.7,17.7,0,0,0,2.82-.27l1.57-.27a7.8,7.8,0,0,1,.31,3,35.87,35.87,0,0,0-3.84.23s-1.55.32-4.81,1l-.72,5.07a3.11,3.11,0,0,1-1.2,2.53,15.45,15.45,0,0,1-2.17-.2,15.88,15.88,0,0,1-1.61-.29q-.54-.18-.54-1.09a4,4,0,0,1,.89-2.47l2.17-2.9q-1.38.73-4.46,2.23t-7,3A18.59,18.59,0,0,1,226.7,500.16Zm19.95-15.92.67-1.42a6.38,6.38,0,0,1,.76-1.29l-6.79-1a8.76,8.76,0,0,0-1.66.28,13.43,13.43,0,0,0-2.27.74,2.38,2.38,0,0,0-1.29,1,4.19,4.19,0,0,0-.31,1.26,1.47,1.47,0,0,0,.39,1.05,2.41,2.41,0,0,0,.92.61,6.33,6.33,0,0,0,1.09.3l1.1.19,5.82,1.33Z"/><path class="cls-1" d="M288.83,489.47l-2.46,4.09a1.13,1.13,0,0,1,.67.67,2.49,2.49,0,0,1,.29,1.12,2.59,2.59,0,0,1-.45,1.25q-.45.75-2.25,3.27t-3.73,2.46q-2.05,0-2.05-2.17a8.5,8.5,0,0,1,1-3.32q1-2.12,2.4-4.48l2.32-3.92-1.15-.64a2.83,2.83,0,0,1-.82-.67,1.57,1.57,0,0,1-.32-1,5.58,5.58,0,0,1,.48-1.86,6.35,6.35,0,0,1,3.15-3.4,36.07,36.07,0,0,1,5.56-2.13L301,466.1a46.24,46.24,0,0,0-8.61.91q-4,.84-7.79,2a30.67,30.67,0,0,1-4.27,1.14q-1,0-1-.6a4.91,4.91,0,0,1,.83-2.08q.83-1.42,1.86-2.87t1.76-2.45a4.6,4.6,0,0,1,1.8-1.49,19.81,19.81,0,0,1,2.77-1,52.41,52.41,0,0,1,7.86-1.59,66.72,66.72,0,0,1,8.31-.51A35.71,35.71,0,0,1,316,459a11,11,0,0,1,5.93,4.17,12.12,12.12,0,0,1,1.72,6.63A15.55,15.55,0,0,1,319.81,480a25.12,25.12,0,0,1-10.49,7.15,40.84,40.84,0,0,1-14.84,2.58A46.91,46.91,0,0,1,288.83,489.47Zm12.56-18.81-4.5,7.28,1,0,.66,0q.48,0,.6.16a1.45,1.45,0,0,1,.12.73q0,.76-1.39,1.14a15.47,15.47,0,0,1-2.33.48l-1.32,2a24.77,24.77,0,0,0,6.19.6,25.1,25.1,0,0,0,7.55-1.66,23.33,23.33,0,0,0,6-3.39,17.84,17.84,0,0,0,3.91-4.14,7.27,7.27,0,0,0,1.39-3.85q-.29-1.66-3.11-2.63a29,29,0,0,0-6.13-1.36,48.85,48.85,0,0,0-5.49-.39,17.91,17.91,0,0,1-1.42,2.5Q302,469.74,301.38,470.66Z"/><path class="cls-1" d="M320.3,488.15c.08-.24.18-.37.31-.37q.54,0,1.66,2.32a16,16,0,0,1,1.34,3.46,2.17,2.17,0,0,0,1.21,1.68,6,6,0,0,0,2.21.36,3.23,3.23,0,0,0,1.73-.52,9.81,9.81,0,0,0,1.69-1.37l1.56-1.54a4.36,4.36,0,0,0-1.42-.94,10.65,10.65,0,0,1-2.07-1.37,2.26,2.26,0,0,1-.78-1.78,1.36,1.36,0,0,1,1.51-1,12.92,12.92,0,0,1,2.52.4,13.13,13.13,0,0,0,2.35.4q.23-.43.68-1.34a9.61,9.61,0,0,0,.64-1.61,3.18,3.18,0,0,0,.12-1,5,5,0,0,0-.1-1q-.1-.43-.15-.62a2.75,2.75,0,0,0-2.64-2.11q-2.39,0-6.37,4l-.48,0-1,0a1,1,0,0,1-.79-1,6.49,6.49,0,0,1,1.2-2.83,7.63,7.63,0,0,1,3.72-2.9,13.93,13.93,0,0,1,5.24-1,9.72,9.72,0,0,1,2.41.25,4.8,4.8,0,0,1,3.42,2.11,10.09,10.09,0,0,1,.84,4.67,10.5,10.5,0,0,1-.6,3.45q-.53,1.34-1.92,4.2a5.77,5.77,0,0,0,2.41-.48,8.76,8.76,0,0,0,1.93-1.2l1.85-1.51.37,2.64a13.1,13.1,0,0,1-4.17,3.69,11.72,11.72,0,0,1-5.32,1.07q-4.39,4.5-9.26,4.5a4.65,4.65,0,0,1-2.92-1,7.15,7.15,0,0,1-2.13-3,13,13,0,0,1-.9-4.58q0-.4,0-1.06t0-1A3.53,3.53,0,0,1,320.3,488.15Z"/><path class="cls-1" d="M350.24,475.11a7.32,7.32,0,0,1,3-.66,13.4,13.4,0,0,1,2.52.31,2.27,2.27,0,0,1,1.6,1,3.37,3.37,0,0,1,.57,1.92,4.84,4.84,0,0,1-.19,1.32,6.56,6.56,0,0,1-.86,1.91q-.51.72-2,2.54-.18.21-1.45,1.54a28.87,28.87,0,0,0-2,2.22,3.19,3.19,0,0,0-.74,1.47q0,.84,1.86.84,2-.73,2.73-1.07a7.08,7.08,0,0,0,1.59-1.09q2.57-2.14,4.48-4t3.56-3.59q1.65-1.74,2.29-2.28a1.87,1.87,0,0,1,1.14-.54,4.92,4.92,0,0,1,1.84.22q.45.22.45,1.1a8.06,8.06,0,0,1-.18,1.45,5,5,0,0,1-.53,1.51,6.28,6.28,0,0,1-.91,1.28,12,12,0,0,1-1,1l-.91.78a28.89,28.89,0,0,0-3.89,4.42,8.14,8.14,0,0,0-1.93,4.42q0,1.32,1.5,1.32,2.17,0,9.25-5.65l.37,2.58-3.13,3.21a33.54,33.54,0,0,1-4.35,3.76,11.87,11.87,0,0,1-4.6,2.12,5.76,5.76,0,0,1-2.76-.74,2.18,2.18,0,0,1-1.37-1.91,21.63,21.63,0,0,1,.15-3,6.49,6.49,0,0,1,.86-2.26l2.95-5.1-.06-.06a22.39,22.39,0,0,0-2.65,1.85,39.34,39.34,0,0,1-5.15,3.24,10.89,10.89,0,0,1-5.06,1.39,5.05,5.05,0,0,1-1.26-.12q-2.46-.56-2.46-2.52a6.39,6.39,0,0,1,.73-2.58,7.24,7.24,0,0,1,.75-1.25,11.7,11.7,0,0,1,.88-.9,13.2,13.2,0,0,0,1.19-1.28l2.18-2.48q1.72-1.94,2.23-2.63a4.94,4.94,0,0,0,.75-1.43,2.75,2.75,0,0,0,.19-.91,1.09,1.09,0,0,0-.69-.93,10.07,10.07,0,0,0-2.32-.62,5.09,5.09,0,0,1,.45-.66Z"/><path class="cls-1" d="M392.53,494.16a2,2,0,0,0,1,.23,3.92,3.92,0,0,0,2.16-.76,29.73,29.73,0,0,0,2.85-2.27,27.42,27.42,0,0,1,2.49-2l.47,2.21a35,35,0,0,1-4.05,3.78,48.79,48.79,0,0,1-5.44,3.92,9.1,9.1,0,0,1-4.08,1.67,2.63,2.63,0,0,1-2.15-.89,3.47,3.47,0,0,1-.74-2.29q0-2.17,2.23-6.72l-.13-.13-5.52,4.93a26.56,26.56,0,0,1-3.26,2.29,11.58,11.58,0,0,1-3.24,1.61,8.76,8.76,0,0,1-2.1.25q-3.84,0-3.84-3.84a14.35,14.35,0,0,1,.66-3.84,13.33,13.33,0,0,1,2.94-5,30.09,30.09,0,0,1,5.56-5,34.3,34.3,0,0,1,7-3.77,21.52,21.52,0,0,1,7-1.63,5.2,5.2,0,0,1,2.94.67,2,2,0,0,1,1,1.74,2.1,2.1,0,0,1-.37,1.11,1.35,1.35,0,0,1-.68.45l-.69.18a2.06,2.06,0,0,1,1.12.87,3.67,3.67,0,0,1,.26,1.59,10.82,10.82,0,0,1-1.52,3.18q-1.52,2.59-2.1,3.7a4.81,4.81,0,0,0-.58,2.25A1.55,1.55,0,0,0,392.53,494.16Zm-16.95.84a1.06,1.06,0,0,0,.6.18q1.06,0,4.17-2.56t10.2-9.69a14.25,14.25,0,0,0-2.23-.13,15,15,0,0,0-5.56,1,14.72,14.72,0,0,0-4.4,2.63,12.77,12.77,0,0,0-2.79,3.36,6.69,6.69,0,0,0-1,3.17A2.25,2.25,0,0,0,375.58,495Z"/><path class="cls-1" d="M415.37,492.77a12.61,12.61,0,0,0-.94,1.56q-.88,1.56-1.47,2.53a5.87,5.87,0,0,1-5.22,3.18,13.32,13.32,0,0,1-1.33-.12,4.92,4.92,0,0,1-2.69-1.25,7.15,7.15,0,0,1-1.59-2.19,15.38,15.38,0,0,1-.87-2.33q-.32-1.13-.42-1.14a7.18,7.18,0,0,1-.13-2.23q0-2.24.48-2.35.19,0,1.25,1.75a14.44,14.44,0,0,0,2.43,3,4.61,4.61,0,0,0,3.23,1.3q2,0,5-3.41a36,36,0,0,0,4.4-5.9q1.14-2.07,1.81-3a8.61,8.61,0,0,1,1.44-1.64,20.56,20.56,0,0,1,2.28-1.64,5.15,5.15,0,0,1,2.95-.66l.63,0,.86,0q2.08,0,2.17,1.32a1.4,1.4,0,0,1-.35.94,5.42,5.42,0,0,1-1,.87q-.65.46-.82.6-.84.73-1.77,1.5t-1.39,1.17q-.45.4-1.28,1.17-3.67,3.42-3.67,6.42a4.28,4.28,0,0,0,.34.54.76.76,0,0,0,.49.37,5.13,5.13,0,0,0,2.85-1,41.11,41.11,0,0,0,4-3.25l6-5.35,2.83-2.65q1.77-1.65,3.37-2.92a3.59,3.59,0,0,1,4.1-1q.45.22.45,1.1a8,8,0,0,1-.18,1.44,4.91,4.91,0,0,1-.51,1.5,6.23,6.23,0,0,1-.84,1.2,13.54,13.54,0,0,1-1.19,1.14l-.83.72a28.88,28.88,0,0,0-3.89,4.42,8.15,8.15,0,0,0-1.93,4.42q0,1.32,1.5,1.32,2.24,0,9.26-5.65l.37,2.6-3,2.88q-1.81,1.77-3.7,3.33a24,24,0,0,1-3.79,2.6,7.31,7.31,0,0,1-3.42,1,3.19,3.19,0,0,1-2.57-1.17,4.21,4.21,0,0,1-1-2.79,15.26,15.26,0,0,1,1.26-5l-.12-.12a36.83,36.83,0,0,0-2.85,3.1,37.38,37.38,0,0,1-3.73,3.86,4.84,4.84,0,0,1-3.09,1.39,9.46,9.46,0,0,1-3.76-.53q-1.1-.53-1.1-2.6A17.43,17.43,0,0,1,415.37,492.77Z"/><path class="cls-1" d="M461.26,489.34l.54,2.29a40.07,40.07,0,0,1-6.15,6,10.53,10.53,0,0,1-6.41,2.67,4,4,0,0,1-2.82-1.09,6.66,6.66,0,0,1-1.76-2.76,10,10,0,0,1-.58-3.29,13.43,13.43,0,0,1,1.95-6.81,19.58,19.58,0,0,1,4.63-5.52q2.68-2.16,4.53-2.16a4.08,4.08,0,0,1,1.81.4,1.34,1.34,0,0,1,.83,1.28q0,2-2.94,5.14a35.6,35.6,0,0,1-5.53,4.95,9.47,9.47,0,0,0-.12,1.14q0,2.64,3.3,2.64a6.21,6.21,0,0,0,2.89-.76,19,19,0,0,0,2.94-1.92Zm-2.82-11.82a2.25,2.25,0,0,1-1.73-.74,2.61,2.61,0,0,1-.68-1.84,4.14,4.14,0,0,1,1.7-3.21,5.45,5.45,0,0,1,3.54-1.42,2,2,0,0,1,1.41.54,1.74,1.74,0,0,1,.57,1.33,5.23,5.23,0,0,1-.68,2.45,6.12,6.12,0,0,1-1.78,2.09A3.89,3.89,0,0,1,458.44,477.51Z"/><path class="cls-1" d="M493.35,480.27q.23,0,1.55-.15l1.45-.15q2.86-.18,3.67-.18l13.45-11.18q5.72-4.72,9.68-7.53t5.77-2.81a1.8,1.8,0,0,1,1.49.84,2.92,2.92,0,0,1,.61,1.75,6.54,6.54,0,0,1-.48,2.16,13.83,13.83,0,0,1-1,2.22l-7.45,13q1.44,0,2.64-.12a1.73,1.73,0,0,1,1,.22,2.83,2.83,0,0,1,.71,1q-.7,1.07-1.11,1.83t-1.17,2.25q-.77,1.5-1,1.94l-4.81.23-3.55,7a2.6,2.6,0,0,0-.6,1.57q0,1.32,1.39,1.32l.52,0a1.23,1.23,0,0,0,.56-.26,5.89,5.89,0,0,0,.88-.9q.55-.65,1.64-2.12l.66,1.51a13.2,13.2,0,0,1-4.34,5,10.49,10.49,0,0,1-5.75,1.58,4,4,0,0,1-2.37-.66,2.21,2.21,0,0,1-.93-1.92,4,4,0,0,1,.23-1.38q0-2.08,4.39-10.15l-13.1.43-9.3,9q-.84.81-2.58,2.68a17.58,17.58,0,0,1-2.83,2.6,4.46,4.46,0,0,1-2.53.73q-1.38,0-1.38-1.45,0-2.79,8.58-8.41l4.7-5.16q-2.73,0-3.43-1.09a2.76,2.76,0,0,1-.35-1.51,3.6,3.6,0,0,1,1.11-2.56A4.83,4.83,0,0,1,493.35,480.27Zm30.53-15.74-17.72,14.54.12.13,9.19-.66Z"/><path class="cls-1" d="M546.24,483.45q.47-.34,2.55-2.38t3.49-3.25a4.12,4.12,0,0,1,2.07-1.2,4.87,4.87,0,0,1,1.83.22q.45.22.45,1.1a8,8,0,0,1-.18,1.44,4.94,4.94,0,0,1-.51,1.5,6.68,6.68,0,0,1-.86,1.23,10,10,0,0,1-1,1l-1,.82a29.42,29.42,0,0,0-3.9,4.4,8.06,8.06,0,0,0-1.94,4.43q0,1.32,1.51,1.32,2.24,0,9.26-5.65l.35,2.6-3,2.88q-1.81,1.77-3.7,3.33a24,24,0,0,1-3.79,2.6,7.31,7.31,0,0,1-3.42,1,3.19,3.19,0,0,1-2.57-1.17,4.21,4.21,0,0,1-1-2.79,17.73,17.73,0,0,1,1.45-5.22,32.84,32.84,0,0,1-4,4.76,9.14,9.14,0,0,1-6,3.1q-4.58,0-4.58-6.3a13.92,13.92,0,0,1,1.24-5.61,21.14,21.14,0,0,1,3.18-5.15,17.71,17.71,0,0,1,3.94-3.59,4.5,4.5,0,0,1,2.64-.66l.65,0,.85,0q2.1,0,2.17,1.32a1.84,1.84,0,0,1-.58,1.31,16.17,16.17,0,0,1-1.59,1.38q-.91.78-2.18,1.69a22.74,22.74,0,0,0-2.27,1.85,12.36,12.36,0,0,0-2.15,3,7.51,7.51,0,0,0-1.09,3.32,1,1,0,0,0,.43,1q3.26,0,7.22-3.61A62.31,62.31,0,0,0,546.24,483.45Zm.84-10.68a8.47,8.47,0,0,1-4-1,10.73,10.73,0,0,1-3-2.21q-1.12-1.23-1.12-1.73,0-.82,1.26-1.69a10.28,10.28,0,0,0,1.2-.91,11.89,11.89,0,0,1,2.53,2,13.42,13.42,0,0,0,2.34,1.94,5.48,5.48,0,0,0,2.82.59q2.89-.28,6.44-3.61a3.15,3.15,0,0,1,.9-.57,2.82,2.82,0,0,1,1-.34q.54,0,.54.85a4.36,4.36,0,0,1-1.67,2.85,14.25,14.25,0,0,1-4.22,2.71A12.58,12.58,0,0,1,547.08,472.78Z"/><path class="cls-1" d="M563.32,475.11a7.32,7.32,0,0,1,3-.66,13.4,13.4,0,0,1,2.52.31,2.27,2.27,0,0,1,1.6,1,3.37,3.37,0,0,1,.57,1.92,4.85,4.85,0,0,1-.19,1.32,6.57,6.57,0,0,1-.86,1.91q-.51.72-2,2.54-.18.21-1.45,1.54a29,29,0,0,0-2,2.22,3.19,3.19,0,0,0-.74,1.47q0,.84,1.86.84,2-.73,2.73-1.07a7.08,7.08,0,0,0,1.59-1.09q2.57-2.14,4.48-4t3.56-3.59q1.65-1.74,2.29-2.28a1.86,1.86,0,0,1,1.14-.54,4.92,4.92,0,0,1,1.84.22q.45.22.45,1.1a8.06,8.06,0,0,1-.18,1.45,5.05,5.05,0,0,1-.53,1.51,6.3,6.3,0,0,1-.91,1.28,12.1,12.1,0,0,1-1,1l-.91.78a28.87,28.87,0,0,0-3.89,4.42,8.14,8.14,0,0,0-1.93,4.42q0,1.32,1.5,1.32,2.17,0,9.25-5.65l.37,2.58-3.13,3.21a33.54,33.54,0,0,1-4.35,3.76,11.87,11.87,0,0,1-4.6,2.12,5.77,5.77,0,0,1-2.76-.74,2.18,2.18,0,0,1-1.37-1.91,21.63,21.63,0,0,1,.15-3,6.49,6.49,0,0,1,.86-2.26l2.95-5.1-.06-.06a22.38,22.38,0,0,0-2.65,1.85,39.37,39.37,0,0,1-5.15,3.24,10.9,10.9,0,0,1-5.06,1.39,5,5,0,0,1-1.26-.12q-2.46-.56-2.46-2.52a6.38,6.38,0,0,1,.73-2.58,7.27,7.27,0,0,1,.75-1.25,11.73,11.73,0,0,1,.88-.9,13.3,13.3,0,0,0,1.19-1.28l2.18-2.48q1.72-1.94,2.23-2.63a4.94,4.94,0,0,0,.75-1.43,2.74,2.74,0,0,0,.19-.91,1.09,1.09,0,0,0-.69-.93,10.08,10.08,0,0,0-2.32-.62,5.09,5.09,0,0,1,.45-.66Z"/><path class="cls-1" d="M611.63,491.87a11.19,11.19,0,0,1,2.17-4.61,46.91,46.91,0,0,1,3-3.81,17.49,17.49,0,0,1,2.1-2.52,43.75,43.75,0,0,1,3.29-3.15,6.34,6.34,0,0,1,2.35-1.53,11,11,0,0,1,1.26-.06,2.17,2.17,0,0,1,1.33.4,1.74,1.74,0,0,1,.41,1.34,8,8,0,0,1-.18,1.44,4.93,4.93,0,0,1-.51,1.5,6.23,6.23,0,0,1-.84,1.2,13.62,13.62,0,0,1-1.19,1.14l-.83.72a28.88,28.88,0,0,0-3.89,4.42,8.14,8.14,0,0,0-1.93,4.42q0,1.32,1.5,1.32,2.24,0,9.26-5.65l.37,2.6-3,2.88q-1.81,1.77-3.7,3.33a24,24,0,0,1-3.79,2.6,7.31,7.31,0,0,1-3.42,1,4.64,4.64,0,0,1-3-1,3.16,3.16,0,0,1-1.28-2.57,5.83,5.83,0,0,0-.88.48l-.63.42q-.91.26-2.71.87t-2.76.89a6.27,6.27,0,0,1-1.72.28,9.43,9.43,0,0,1-2.11.41q-1.17.1-3.24.16l-2.53.09a15.14,15.14,0,0,1-5-.82,3.14,3.14,0,0,1-2.48-2.85,5.35,5.35,0,0,0-.09-.92,4.72,4.72,0,0,1-.09-.75q0-1.31,2.77-4.93-.79.21-2.34.52a13.8,13.8,0,0,1-2.71.32q-.31-.15-.31-1a6.14,6.14,0,0,1,.12-1.17q.12-.6.19-.88a7.43,7.43,0,0,1,2.37-1.09q1.64-.51,3.24-.84l2.2-.45q1.26-2.19,2.21-3.85t2-3.12a12.63,12.63,0,0,1,2-2.35,5.16,5.16,0,0,1,3.42-1.38,3.18,3.18,0,0,1,2.05.66q-.73,3.61-5.23,10.81,9.48,0,9.55,4.68a7.69,7.69,0,0,1-1.51,4.87,5.26,5.26,0,0,0,1.93-.6,4.6,4.6,0,0,0,1.86-1.38A7.1,7.1,0,0,0,611.63,491.87Zm-15.15-1.5-1.26,2.21q-.37.62-.79,1.38a3,3,0,0,0-.42,1.45,2.2,2.2,0,0,0,2.35,1.32,3.47,3.47,0,0,0,1-.13,11.25,11.25,0,0,0,3.57-1.36,3,3,0,0,0,1.06-2.66q0-2.16-3-2.16l-.79,0-.76,0A2.62,2.62,0,0,1,596.48,490.38Z"/><path class="cls-1" d="M630.72,500.28q-.81-.5-1.78-3.59a17.62,17.62,0,0,1-1-5,18.43,18.43,0,0,1,1.74-8.46,13.65,13.65,0,0,1,4.82-5.37q.92-.66,3.9-.66a1.41,1.41,0,0,1,1.06.36,2.86,2.86,0,0,1,.43,1.64,5.23,5.23,0,0,1-1.26,2.7,18,18,0,0,0-1.13,1.82,18.76,18.76,0,0,1-1.33,2.08.42.42,0,0,0-.12.31q0,.66,2.35.66a21.41,21.41,0,0,0,4.44-.51q2.41-.51,2.71-1.11a21.1,21.1,0,0,1,2.6-4,20.16,20.16,0,0,1,3.26-3.24,4.91,4.91,0,0,1,2.67-1.26,3.68,3.68,0,0,1,1.72.31,1.3,1.3,0,0,1,.56,1.25,5.37,5.37,0,0,1-.18,1.2,5.52,5.52,0,0,1-1.14,2.39,22.53,22.53,0,0,1-2.21,2.17,29.48,29.48,0,0,0-3.9,4.4,8.08,8.08,0,0,0-1.94,4.43q0,1.32,1.51,1.32,2.24,0,9.26-5.64l.35,2.6-3,2.88q-1.81,1.77-3.7,3.33a24,24,0,0,1-3.79,2.59,7.31,7.31,0,0,1-3.42,1,3.19,3.19,0,0,1-2.57-1.16,4.2,4.2,0,0,1-1-2.79q0-5,1.8-6.84l-3.43-.34q-2.19-.21-3.59-.2-.84,0-.84.12a16.57,16.57,0,0,0,.19,2.69q.19,1.14.57,2.88a13.58,13.58,0,0,1,.38,2.35A2.46,2.46,0,0,1,634,500a7.13,7.13,0,0,1-2.23.54A1.9,1.9,0,0,1,630.72,500.28Z"/><path class="cls-1" d="M684,491.87a11.19,11.19,0,0,1,2.17-4.61,46.91,46.91,0,0,1,3-3.81,17.49,17.49,0,0,1,2.1-2.52,43.75,43.75,0,0,1,3.29-3.15,6.34,6.34,0,0,1,2.35-1.53,11,11,0,0,1,1.26-.06,2.17,2.17,0,0,1,1.33.4,1.74,1.74,0,0,1,.41,1.34,8,8,0,0,1-.18,1.44,4.93,4.93,0,0,1-.51,1.5,6.23,6.23,0,0,1-.84,1.2,13.62,13.62,0,0,1-1.19,1.14l-.83.72a28.88,28.88,0,0,0-3.89,4.42,8.14,8.14,0,0,0-1.93,4.42q0,1.32,1.5,1.32,2.24,0,9.26-5.65l.37,2.6-3,2.88q-1.81,1.77-3.7,3.33a24,24,0,0,1-3.79,2.6,7.31,7.31,0,0,1-3.42,1,4.64,4.64,0,0,1-3-1,3.16,3.16,0,0,1-1.28-2.57,5.83,5.83,0,0,0-.88.48l-.63.42q-.91.26-2.71.87t-2.76.89a6.27,6.27,0,0,1-1.72.28,9.43,9.43,0,0,1-2.11.41q-1.17.1-3.24.16l-2.53.09a15.14,15.14,0,0,1-5-.82,3.14,3.14,0,0,1-2.48-2.85,5.35,5.35,0,0,0-.09-.92,4.72,4.72,0,0,1-.09-.75q0-1.31,2.77-4.93-.79.21-2.34.52a13.8,13.8,0,0,1-2.71.32q-.31-.15-.31-1a6.14,6.14,0,0,1,.12-1.17q.12-.6.19-.88a7.43,7.43,0,0,1,2.37-1.09q1.64-.51,3.24-.84l2.2-.45q1.26-2.19,2.21-3.85t2-3.12a12.63,12.63,0,0,1,2-2.35,5.16,5.16,0,0,1,3.42-1.38,3.18,3.18,0,0,1,2.05.66q-.73,3.61-5.23,10.81,9.48,0,9.55,4.68a7.69,7.69,0,0,1-1.51,4.87,5.26,5.26,0,0,0,1.93-.6,4.6,4.6,0,0,0,1.86-1.38A7.1,7.1,0,0,0,684,491.87Zm-15.15-1.5-1.26,2.21q-.37.62-.79,1.38a3,3,0,0,0-.42,1.45,2.2,2.2,0,0,0,2.35,1.32,3.47,3.47,0,0,0,1-.13,11.25,11.25,0,0,0,3.57-1.36,3,3,0,0,0,1.06-2.66q0-2.16-3-2.16l-.79,0-.76,0A2.62,2.62,0,0,1,668.82,490.38Z"/></g></g></svg>