<svg xmlns="http://www.w3.org/2000/svg" viewBox="0 0 614.4 512"><defs><style>.cls-1{fill:#f03838;}</style></defs><title>Ресурс 13</title><g id="Слой_2" data-name="Слой 2"><g id="Capa_1" data-name="Capa 1"><polygon class="cls-1" points="117.03 204.69 87.77 204.69 87.77 175.38 58.51 175.38 58.51 204.69 29.26 204.69 29.26 234 0 234 0 263.31 29.26 263.31 58.51 263.31 87.77 263.31 117.03 263.31 146.29 263.31 146.29 234 117.03 234 117.03 204.69"/><path class="cls-1" d="M497.37,146.06H438.86v29.31H380.34V146.06H409.6V117h29.26V0H409.6V29.31H380.34V58.62H351.09V87.94H321.83V117H292.57V87.94H263.31V58.62H234.06V29.31H204.8V0H175.54V117H204.8v29.06h29.26v29.31H175.54V146.06H87.77v29.31H117v29.31h29.26V234h29.26v29.31h117V234h29.26v29.31h117V234h29.26V204.69h29.26V175.38h29.26V146.06ZM263.31,204.69H234.06V175.63h29.26Zm117,0H351.09V175.63h29.26Z"/><polygon class="cls-1" points="585.14 234 585.14 204.69 555.89 204.69 555.89 175.38 526.63 175.38 526.63 204.69 497.37 204.69 497.37 234 468.11 234 468.11 263.31 497.37 263.31 526.63 263.31 555.89 263.31 585.14 263.31 614.4 263.31 614.4 234 585.14 234"/><polygon class="cls-1" points="146.29 292.57 73.14 292.57 29.26 292.57 29.26 307.2 29.26 468.11 73.14 468.11 73.14 307.2 146.29 307.2 146.29 292.57"/><polygon class="cls-1" points="248.69 438.86 248.69 438.86 248.69 438.86 248.69 438.86"/><polygon class="cls-1" points="292.57 277.94 248.69 277.94 219.43 277.94 175.54 277.94 175.54 292.57 175.54 438.86 175.54 453.49 175.54 512 219.43 468.11 219.43 453.49 234.06 453.49 248.69 438.86 219.43 438.86 219.43 292.57 248.69 292.57 248.69 438.86 292.57 394.97 292.57 292.57 292.57 277.94"/><path class="cls-1" d="M395,277.94H321.83V395l43.89,43.89V409.6H395v58.51L438.86,512V277.94Zm0,117H365.71V292.57H395Z"/><polygon class="cls-1" points="519.31 292.57 519.31 336.46 533.94 321.83 533.94 292.57 519.31 292.57"/><polygon class="cls-1" points="585.14 292.57 541.26 292.57 541.26 374.28 512 403.54 512 292.57 468.11 292.57 468.11 447.43 468.11 447.43 468.11 468.11 468.11 468.11 512 468.11 512 424.23 541.26 394.97 541.26 468.11 585.14 468.11 585.14 351.09 585.14 330.4 585.14 292.57"/></g></g></svg>